<svg
    xmlns="http://www.w3.org/2000/svg"
    viewBox="0 0 10 11"
    id="vector">
    <path
        id="path_2"
        d="M 9.187 4.709 L 9.16 4.709 L 9.16 4.04 C 9.16 3.009 8.75 2.019 8.021 1.289 C 7.291 0.56 6.301 0.15 5.27 0.15 C 4.239 0.15 3.249 0.56 2.519 1.289 C 1.79 2.019 1.38 3.009 1.38 4.04 L 1.38 4.709 L 1.216 4.709 C 0.923 4.721 0.647 4.849 0.448 5.063 C 0.248 5.278 0.142 5.563 0.151 5.856 L 0.151 7.562 C 0.146 7.751 0.191 7.938 0.282 8.105 C 0.372 8.271 0.505 8.41 0.667 8.509 C 0.828 8.608 1.013 8.662 1.202 8.667 L 2.226 8.667 C 2.271 8.665 2.316 8.651 2.354 8.626 C 2.392 8.602 2.423 8.568 2.444 8.527 C 2.465 8.487 2.475 8.441 2.473 8.396 C 2.473 8.391 2.473 8.386 2.473 8.381 L 2.473 5.036 C 2.473 4.872 2.373 4.708 2.227 4.708 L 1.927 4.708 L 1.927 4.04 C 1.925 3.332 2.147 2.642 2.562 2.069 C 2.977 1.496 3.563 1.069 4.236 0.85 C 4.908 0.631 5.634 0.631 6.306 0.85 C 6.979 1.069 7.565 1.496 7.98 2.069 C 8.395 2.642 8.617 3.332 8.615 4.04 L 8.615 4.709 L 8.315 4.709 C 8.165 4.709 8.069 4.873 8.069 5.037 L 8.069 8.381 C 8.062 8.449 8.082 8.518 8.125 8.571 C 8.168 8.625 8.231 8.659 8.299 8.666 L 8.628 8.666 L 8.601 8.707 C 8.399 8.975 8.137 9.193 7.836 9.342 C 7.535 9.491 7.204 9.568 6.868 9.567 C 6.802 9.24 6.616 8.948 6.348 8.75 C 6.079 8.551 5.746 8.459 5.414 8.491 C 5.081 8.523 4.772 8.677 4.547 8.924 C 4.322 9.17 4.195 9.492 4.193 9.826 C 4.197 10.185 4.342 10.529 4.598 10.782 C 4.853 11.035 5.199 11.177 5.558 11.177 C 5.928 11.171 6.282 11.019 6.541 10.754 C 6.716 10.575 6.831 10.346 6.869 10.099 C 7.29 10.101 7.705 10.004 8.082 9.817 C 8.458 9.63 8.786 9.357 9.039 9.021 L 9.294 8.64 C 9.461 8.645 9.627 8.604 9.773 8.522 C 9.92 8.441 10.041 8.321 10.125 8.176 C 10.208 8.031 10.251 7.866 10.249 7.698 L 10.249 5.992 C 10.263 5.685 10.162 5.383 9.965 5.146 C 9.769 4.909 9.492 4.753 9.187 4.709 Z M 1.925 8.121 L 1.215 8.121 C 1.122 8.119 1.03 8.092 0.951 8.043 C 0.871 7.995 0.805 7.926 0.761 7.844 C 0.716 7.762 0.694 7.669 0.696 7.576 C 0.696 7.576 0.696 7.566 0.696 7.561 L 0.696 5.855 C 0.687 5.707 0.736 5.561 0.833 5.449 C 0.93 5.337 1.067 5.267 1.215 5.255 L 1.925 5.255 Z M 6.143 10.373 C 6.068 10.454 5.977 10.519 5.876 10.564 C 5.775 10.608 5.666 10.631 5.556 10.632 C 5.342 10.629 5.138 10.543 4.986 10.393 C 4.833 10.243 4.744 10.041 4.737 9.827 C 4.738 9.614 4.823 9.41 4.974 9.259 C 5.125 9.109 5.329 9.024 5.543 9.024 C 5.756 9.024 5.96 9.109 6.111 9.259 C 6.262 9.41 6.347 9.614 6.348 9.827 L 6.348 9.827 C 6.354 9.927 6.338 10.028 6.303 10.122 C 6.268 10.216 6.213 10.301 6.143 10.373 Z M 9.705 7.698 C 9.705 8.067 9.35 8.121 9.186 8.121 L 8.613 8.121 L 8.613 5.25 L 9.186 5.25 C 9.486 5.25 9.705 5.673 9.705 5.987 Z"
        fill="#008885"
        stroke-width="0.3"/>
</svg>
