<svg
    xmlns="http://www.w3.org/2000/svg"
    viewBox="0 0 9 5"
    id="vector">
    <path
        id="path_1"
        d="M 4.636 0.146 L 0.147 4.636 C 0.053 4.731 0 4.859 0 4.992 C 0.001 5.126 0.054 5.254 0.148 5.348 C 0.242 5.442 0.37 5.495 0.504 5.496 C 0.637 5.496 0.765 5.443 0.86 5.349 L 4.992 1.216 L 9.124 5.349 C 9.219 5.443 9.347 5.496 9.481 5.495 C 9.614 5.495 9.742 5.442 9.836 5.347 C 9.931 5.253 9.984 5.125 9.984 4.991 C 9.984 4.858 9.931 4.73 9.837 4.635 L 5.349 0.145 C 5.254 0.052 5.126 0 4.992 0 C 4.859 0 4.731 0.053 4.636 0.146 Z"
        fill="#008884"/>
</svg>
