<svg
    xmlns="http://www.w3.org/2000/svg"
    viewBox="0 0 24 24"
    id="vector">
    <path
        id="path"
        d="M 24 12.3 C 24 5.8 18.7 0.5 12.2 0.5 C 5.7 0.5 0.4 5.8 0.4 12.3 C 0.4 18.8 5.7 24.1 12.2 24.1 C 18.7 24.1 24 18.8 24 12.3 Z"
        fill="#008885"/>
    <path
        id="path_1"
        d="M 7 8.8 C 7 8.1 7.2 7.5 7.6 6.8 C 8 6.1 8.6 5.6 9.5 5.1 C 10.3 4.7 11.3 4.4 12.3 4.4 C 13.3 4.4 14.2 4.6 15 5 C 15.8 5.4 16.4 5.9 16.8 6.5 C 17.2 7.1 17.4 7.8 17.4 8.6 C 17.4 9.2 17.3 9.7 17 10.2 C 16.8 10.6 16.5 11 16.1 11.4 C 15.8 11.7 15.2 12.3 14.3 13 C 14.1 13.2 13.9 13.4 13.7 13.6 C 13.6 13.8 13.5 13.9 13.4 14 C 13.3 14.1 13.3 14.3 13.2 14.4 C 13.2 14.5 13.1 14.8 13 15.1 C 12.9 15.8 12.5 16.2 11.8 16.2 C 11.4 16.2 11.1 16.1 10.9 15.8 C 10.7 15.6 10.5 15.2 10.5 14.7 C 10.5 14.1 10.6 13.6 10.8 13.2 C 11 12.8 11.2 12.4 11.5 12.1 C 11.8 11.8 12.2 11.4 12.7 10.9 C 13.1 10.5 13.5 10.2 13.7 10 C 13.9 9.8 14.1 9.6 14.2 9.3 C 14.3 9.1 14.4 8.8 14.4 8.5 C 14.4 7.9 14.2 7.5 13.8 7.1 C 13.4 6.7 12.9 6.5 12.2 6.5 C 11.4 6.5 10.9 6.7 10.5 7.1 C 10.1 7.5 9.8 8.1 9.6 8.8 C 9.5 9.7 9 10.1 8.4 10.1 C 8 10.1 7.7 10 7.4 9.7 C 7.1 9.4 7 9.1 7 8.8 Z M 12.1 20.2 C 11.7 20.2 11.3 20.1 11 19.8 C 10.7 19.5 10.5 19.1 10.5 18.6 C 10.5 18.2 10.7 17.8 11 17.5 C 11.3 17.2 11.7 17.1 12.1 17.1 C 12.5 17.1 12.9 17.2 13.2 17.5 C 13.5 17.8 13.6 18.2 13.6 18.6 C 13.6 19.1 13.4 19.5 13.1 19.7 C 12.9 20.1 12.5 20.2 12.1 20.2 Z"
        fill="#ffffff"/>
</svg>
