<svg xmlns="http://www.w3.org/2000/svg" width="17" height="17" viewBox="0 0 17 17">
  <g id="home" transform="translate(0)">
    <path id="Path_22493" data-name="Path 22493" d="M8.862.131a.566.566,0,0,0-.725,0L.2,6.739a.567.567,0,0,0,.362,1H2.221v8.692A.566.566,0,0,0,2.788,17H14.212a.566.566,0,0,0,.567-.567V7.741h1.655a.567.567,0,0,0,.362-1Zm5.35,6.476a.566.566,0,0,0-.567.567v8.692H3.355V7.174a.566.566,0,0,0-.567-.567H2.134L8.5,1.3l6.366,5.3Z" transform="translate(0 0)" fill="#ff5a5f"/>
    <path id="Path_22494" data-name="Path 22494" d="M11.548,13.62V15.4H9.772a.42.42,0,1,0,0,.839h1.776v1.776a.42.42,0,1,0,.839,0V16.236h1.776a.42.42,0,0,0,0-.839H12.388V13.62a.42.42,0,1,0-.839,0Z" transform="translate(-3.468 -4.895)" fill="#ff5a5f"/>
  </g>
</svg>
