<svg xmlns="http://www.w3.org/2000/svg" width="19.3" height="16.868" viewBox="0 0 19.3 16.868">
  <path id="heart" d="M9,50.162a.527.527,0,0,1-.264-.071,31.49,31.49,0,0,1-4.328-3.115,17.856,17.856,0,0,1-3-3.217A6.786,6.786,0,0,1,0,39.9a5.573,5.573,0,0,1,1.422-3.732,4.66,4.66,0,0,1,3.469-1.573A4.814,4.814,0,0,1,9,37.031a4.814,4.814,0,0,1,4.109-2.437,4.686,4.686,0,0,1,3.335,1.419A5.494,5.494,0,0,1,18,39.906a6.918,6.918,0,0,1-1.432,3.854,18.086,18.086,0,0,1-3,3.216,31.6,31.6,0,0,1-4.3,3.114A.528.528,0,0,1,9,50.162Z" transform="translate(0.65 -33.944)" fill="none" stroke="#ff5a5f" stroke-width="1.3"/>
</svg>
