<svg xmlns="http://www.w3.org/2000/svg" width="50" height="50" viewBox="0 0 50 50">
  <g id="Group_38900" data-name="Group 38900" transform="translate(-180.5 -506.776)">
    <g id="Ellipse_437" data-name="Ellipse 437" transform="translate(180.5 506.776)" fill="#fff" stroke="#ddd" stroke-width="1">
      <circle cx="25" cy="25" r="25" stroke="none"/>
      <circle cx="25" cy="25" r="24.5" fill="none"/>
    </g>
    <path id="messenger" d="M10.53,0A10.531,10.531,0,0,0,1.4,15.772L.04,19.985A.823.823,0,0,0,1.075,21.02l4.213-1.357A10.53,10.53,0,1,0,10.53,0Zm0,19.414a8.859,8.859,0,0,1-4.7-1.346.823.823,0,0,0-.688-.085L2.1,18.962l.979-3.041a.823.823,0,0,0-.086-.688,8.88,8.88,0,1,1,7.539,4.182Zm1.028-8.884A1.028,1.028,0,1,1,10.53,9.5,1.028,1.028,0,0,1,11.558,10.53Zm4.113,0A1.028,1.028,0,1,1,14.643,9.5,1.028,1.028,0,0,1,15.671,10.53Zm-8.226,0A1.028,1.028,0,1,1,6.417,9.5,1.028,1.028,0,0,1,7.445,10.53Zm0,0" transform="translate(194.958 521.233)" fill="#008885" stroke="#008885" stroke-width="0.4"/>
  </g>
</svg>
