<svg xmlns="http://www.w3.org/2000/svg" width="12.378" height="16.4" viewBox="0 0 12.378 16.4">
  <g id="task" transform="translate(-4.44 -1.8)">
    <path id="Path_22476" data-name="Path 22476" d="M14.149,3.4h-1.12A1.219,1.219,0,0,0,11.846,2H9.419A1.219,1.219,0,0,0,8.236,3.4H7.108A2.471,2.471,0,0,0,4.64,5.871v9.661A2.471,2.471,0,0,0,7.108,18h7.04a2.471,2.471,0,0,0,2.469-2.469V5.871A2.471,2.471,0,0,0,14.149,3.4ZM9,3.182a.421.421,0,0,1,.42-.42h2.428c.6.008.384.834.42,1.2a.421.421,0,0,1-.42.42H9.419c-.6-.008-.384-.834-.42-1.2Zm6.857,12.349a1.709,1.709,0,0,1-1.707,1.707H7.108A1.709,1.709,0,0,1,5.4,15.531V5.871A1.709,1.709,0,0,1,7.108,4.164H8.256a1.182,1.182,0,0,0,1.162.984h2.428a1.182,1.182,0,0,0,1.162-.984h1.14a1.709,1.709,0,0,1,1.707,1.707Zm-5.516-8L8.572,9.77A.383.383,0,0,1,8,9.8L7.043,8.85c-.358-.343.192-.894.536-.541l.66.654,1.5-1.9a.381.381,0,0,1,.6.472Zm3.607,2.38H10.8a.381.381,0,1,1,0-.762h3.144a.381.381,0,1,1,0,.762Zm-3.607,2.191L8.572,14.342A.383.383,0,0,1,8,14.376l-.962-.954c-.358-.343.192-.894.536-.541l.66.654,1.5-1.9a.381.381,0,0,1,.6.472Zm3.607,2.38H10.8a.381.381,0,1,1,0-.762h3.144a.381.381,0,1,1,0,.762Z" transform="translate(0)" fill="#008885" stroke="#008885" stroke-width="0.4"/>
  </g>
</svg>
