<svg xmlns="http://www.w3.org/2000/svg" width="17.067" height="15" viewBox="0 0 17.067 15">
  <g id="calendar" transform="translate(-2.178 -31)">
    <path id="Path_22551" data-name="Path 22551" d="M.5,44H3v1.5a.5.5,0,0,0,.5.5H16.566a.5.5,0,0,0,.5-.5v-13a.5.5,0,0,0-.5-.5h-2.5v-.5a.5.5,0,0,0-1,0V32H10.533v-.5a.5.5,0,0,0-1,0V32h-2.5v-.5a.5.5,0,0,0-1,0V32H3.5a.5.5,0,0,0-.5.5v3c0,3.685-1.531,6.52-2.82,7.616A.5.5,0,0,0,.5,44Zm15.567,1H4V44h9.567a.5.5,0,0,0,.32-.116,9.228,9.228,0,0,0,2.18-3.219ZM4,33H6.033v.5a.5.5,0,1,0,1,0V33h2.5v.5a.5.5,0,1,0,1,0V33h2.533v.5a.5.5,0,1,0,1,0V33h2v2H4Zm-.009,3H16.058a10.479,10.479,0,0,1-2.687,7H1.637a12.033,12.033,0,0,0,2.354-7Z" transform="translate(2.179 0)" fill="#ff5a5f"/>
  </g>
</svg>
