<svg xmlns="http://www.w3.org/2000/svg" width="39.662" height="34.573" viewBox="0 0 39.662 34.573">
  <path id="heart" d="M18.832,67.167a1.1,1.1,0,0,1-.552-.148A65.89,65.89,0,0,1,9.223,60.5a37.36,37.36,0,0,1-6.282-6.732A14.2,14.2,0,0,1,0,45.694a11.66,11.66,0,0,1,2.974-7.809,9.749,9.749,0,0,1,7.258-3.291,10.072,10.072,0,0,1,8.6,5.1,10.072,10.072,0,0,1,8.6-5.1,9.805,9.805,0,0,1,6.978,2.969,11.5,11.5,0,0,1,3.255,8.145,14.474,14.474,0,0,1-3,8.064A37.843,37.843,0,0,1,28.394,60.5a66.114,66.114,0,0,1-9.007,6.516,1.1,1.1,0,0,1-.555.149Z" transform="translate(1 -33.594)" fill="#ff5a5f" stroke="#fff" stroke-width="2"/>
</svg>
