<svg xmlns="http://www.w3.org/2000/svg" width="11.1" height="11.1" viewBox="0 0 11.1 11.1">
  <g id="cancel" transform="translate(-16.35 -16.35)">
    <path id="Path_22477" data-name="Path 22477" d="M21.9,27.4a5.5,5.5,0,1,0-5.5-5.5A5.507,5.507,0,0,0,21.9,27.4Zm0-10.226A4.726,4.726,0,1,1,17.174,21.9,4.732,4.732,0,0,1,21.9,17.174Z" fill="#008885" stroke="#008885" stroke-width="0.1"/>
    <path id="Path_22478" data-name="Path 22478" d="M37.129,40.756a.37.37,0,0,0,.522,0l1.442-1.442,1.442,1.442a.37.37,0,0,0,.522,0,.38.38,0,0,0,0-.522l-1.442-1.442,1.442-1.442a.369.369,0,0,0-.522-.522l-1.442,1.442L37.65,36.829a.369.369,0,0,0-.522.522l1.442,1.442-1.442,1.442a.38.38,0,0,0,0,.522Z" transform="translate(-17.192 -16.942)" fill="#008885" stroke="#008885" stroke-width="0.1"/>
  </g>
</svg>
