<svg xmlns="http://www.w3.org/2000/svg" width="15.324" height="15.166" viewBox="0 0 15.324 15.166">
  <g id="confetti" transform="translate(0 -2.657)">
    <path id="Path_30737" data-name="Path 30737" d="M7.951,147.283,6,150.339l-6,4.7H0L1.376,151.5l.383-.312-.035-.584.317-.817.351-.229-.007-.658.319-.821.477-.287-.139-.585.324-.836.483-.223-.149-.637.559-1.441.723.559A27.573,27.573,0,0,1,7.951,147.283Z" transform="translate(0 -137.219)" fill="#fc0"/>
    <path id="Path_30738" data-name="Path 30738" d="M377.259,264.234a.483.483,0,0,1-.416-.015,1.34,1.34,0,0,0-1.757.79c-.081.179-.114.253-.265.321a.483.483,0,0,1-.416-.015,1.347,1.347,0,0,0-1.046.023l.364.811a.483.483,0,0,1,.416.015,1.668,1.668,0,0,0,.516.1,1.275,1.275,0,0,0,.53-.118,1.347,1.347,0,0,0,.711-.767c.081-.179.114-.253.265-.321a.483.483,0,0,1,.416.015,1.347,1.347,0,0,0,1.046-.023Z" transform="translate(-362.3 -253.72)" fill="#0dbe06"/>
    <path id="Path_30739" data-name="Path 30739" d="M175.511,2.657a.584.584,0,0,1-.364.307,1.457,1.457,0,0,0-.871,1.8.583.583,0,0,1-.379.783,1.436,1.436,0,0,0-.794.728l.8.387a.583.583,0,0,1,.364-.307,1.457,1.457,0,0,0,.871-1.8.584.584,0,0,1,.379-.783,1.436,1.436,0,0,0,.794-.728Z" transform="translate(-167.975)" fill="#4084e6"/>
    <path id="Path_30740" data-name="Path 30740" d="M282.38,74.364h.889v.889h-.889Z" transform="translate(-274.015 -69.583)" fill="#1f7099"/>
    <path id="Path_30741" data-name="Path 30741" d="M357.38,4.364h.889v.889h-.889Z" transform="translate(-346.793 -1.656)" fill="#1f7099"/>
    <path id="Path_30742" data-name="Path 30742" d="M402.38,199.364h.889v.879h-.889Z" transform="translate(-390.46 -190.88)" fill="#284866"/>
    <path id="Path_30743" data-name="Path 30743" d="M477.38,154.364h.889v.879h-.889Z" transform="translate(-463.238 -147.213)" fill="#284866"/>
    <path id="Path_30744" data-name="Path 30744" d="M117.38,79.364h.889v.866h-.889Z" transform="translate(-113.903 -74.435)" fill="#1f7099"/>
    <path id="Path_30745" data-name="Path 30745" d="M147.38,4.364h.889V5.23h-.889Z" transform="translate(-143.014 -1.656)" fill="#1f7099"/>
    <path id="Path_30746" data-name="Path 30746" d="M417.38,380.137h.889V381h-.889Z" transform="translate(-405.016 -366.297)" fill="#284866"/>
    <path id="Path_30747" data-name="Path 30747" d="M477.38,334.364h.889v.866h-.889Z" transform="translate(-463.238 -321.881)" fill="#284866"/>
    <path id="Path_30748" data-name="Path 30748" d="M117.173,195.506l-.636.621a24.038,24.038,0,0,0-2.887-2.573l.334-.86A24.915,24.915,0,0,1,117.173,195.506Z" transform="translate(-110.283 -184.407)" fill="#fff69e"/>
    <path id="Path_30749" data-name="Path 30749" d="M94.175,252.32l-.636.621a25.933,25.933,0,0,0-2.259-2.124l.338-.872A26.821,26.821,0,0,1,94.175,252.32Z" transform="translate(-88.576 -239.961)" fill="#fff69e"/>
    <path id="Path_30750" data-name="Path 30750" d="M71.2,309.028l-.636.621q-.8-.855-1.661-1.647l.344-.887Q70.261,308.027,71.2,309.028Z" transform="translate(-66.859 -295.438)" fill="#fff69e"/>
    <path id="Path_30751" data-name="Path 30751" d="M48.2,366.048l-.636.621q-.543-.572-1.111-1.119l.348-.9Q47.515,365.33,48.2,366.048Z" transform="translate(-45.074 -351.273)" fill="#fff69e"/>
    <path id="Path_30752" data-name="Path 30752" d="M7.961,252.684a27.555,27.555,0,0,1,2.858,3.491l.334.484-1.5.509-.726-.16-.145.456-.877.3-.646-.107-.235.406-.851.289-.564-.062-.328.365-.781.265-.788-.108-.118.416L.01,260.443" transform="translate(-0.01 -242.62)" fill="#ff9c1b"/>
    <g id="Group_38825" data-name="Group 38825" transform="translate(2.487 11.099)">
      <path id="Path_30753" data-name="Path 30753" d="M214.51,291.083l-.871.3a24.017,24.017,0,0,0-2.518-3.124l.636-.621A24.877,24.877,0,0,1,214.51,291.083Z" transform="translate(-207.353 -287.634)" fill="#fd5"/>
      <path id="Path_30754" data-name="Path 30754" d="M170.482,332.937l-.881.3a25.9,25.9,0,0,0-2.051-2.462l.636-.621A26.826,26.826,0,0,1,170.482,332.937Z" transform="translate(-165.074 -328.894)" fill="#fd5"/>
      <path id="Path_30755" data-name="Path 30755" d="M127.421,373.864l-.892.3q-.748-.942-1.569-1.822l.636-.621Q126.557,372.752,127.421,373.864Z" transform="translate(-123.745 -369.233)" fill="#fd5"/>
      <path id="Path_30756" data-name="Path 30756" d="M85.963,413.247l-.906.308q-.533-.617-1.1-1.21l.636-.621Q85.3,412.467,85.963,413.247Z" transform="translate(-83.96 -408.048)" fill="#fd5"/>
    </g>
    <path id="Path_30757" data-name="Path 30757" d="M312.615,22.557a.512.512,0,0,0-.149.406,1.372,1.372,0,0,1-1.4,1.357.5.5,0,0,0-.56.544,1.372,1.372,0,0,1-1.4,1.357.5.5,0,0,0-.56.544,1.371,1.371,0,0,1-1.4,1.357.512.512,0,0,0-.41.138l-.1-.1L309.757,25l2.749-2.552Z" transform="translate(-297.566 -19.201)" fill="#f82e2e"/>
    <path id="Path_30758" data-name="Path 30758" d="M295.5,5.278l-5.856,5.715-.519-.534a1.358,1.358,0,0,1,.98-.388.5.5,0,0,0,.56-.544,1.371,1.371,0,0,1,1.4-1.357.5.5,0,0,0,.56-.544,1.372,1.372,0,0,1,1.4-1.357.5.5,0,0,0,.56-.544,1.359,1.359,0,0,1,.415-.969Z" transform="translate(-280.555 -2.035)" fill="#f07932"/>
  </g>
</svg>
