<svg
    xmlns="http://www.w3.org/2000/svg"
    viewBox="0 0 15 16"
    id="vector">
    <defs>
        <clipPath id="clip_path">
            <path d="M 0 0 L 15 0 L 15 16 L 0 16 Z"/>
        </clipPath>
        <clipPath id="clip_path_1">
            <path d="M 0 0 L 15 0 L 15 16 L 0 16 Z"/>
        </clipPath>
    </defs>
    <g id="group">
        <path
            id="path"
            clip-path="url(#clip_path)"
            d="M 13.72 9.867 C 13.623 9.867 13.53 9.906 13.461 9.974 C 13.393 10.043 13.354 10.136 13.354 10.233 L 13.354 13.485 C 13.354 13.777 13.238 14.057 13.032 14.263 C 12.826 14.469 12.546 14.585 12.254 14.585 L 1.977 14.585 C 1.685 14.585 1.405 14.469 1.199 14.263 C 0.993 14.057 0.877 13.777 0.877 13.485 L 0.877 3.94 C 0.877 3.648 0.993 3.368 1.199 3.162 C 1.405 2.956 1.685 2.84 1.977 2.84 L 5.23 2.84 C 5.327 2.84 5.42 2.801 5.488 2.732 C 5.557 2.664 5.595 2.57 5.595 2.474 C 5.595 2.377 5.557 2.283 5.488 2.215 C 5.42 2.146 5.327 2.107 5.23 2.107 L 1.977 2.107 C 1.491 2.108 1.026 2.301 0.682 2.645 C 0.339 2.988 0.146 3.454 0.146 3.94 L 0.146 13.485 C 0.147 13.97 0.34 14.436 0.683 14.779 C 1.026 15.122 1.492 15.315 1.977 15.316 L 12.255 15.316 C 12.74 15.315 13.206 15.122 13.549 14.779 C 13.892 14.436 14.085 13.97 14.086 13.485 L 14.086 10.233 C 14.086 10.136 14.047 10.043 13.979 9.974 C 13.91 9.906 13.817 9.867 13.72 9.867 Z M 13.72 9.867"
            fill="#008885"
            stroke="#008885"
            stroke-width="0.5"/>
        <path
            id="path_1"
            clip-path="url(#clip_path_1)"
            d="M 13.943 1.164 C 13.634 0.855 13.214 0.681 12.777 0.681 C 12.34 0.681 11.92 0.855 11.611 1.164 L 5.075 7.701 C 5.03 7.746 4.998 7.801 4.981 7.862 L 4.122 10.962 C 4.099 11.046 4.106 11.135 4.142 11.214 C 4.179 11.293 4.242 11.356 4.321 11.393 C 4.4 11.429 4.489 11.436 4.573 11.413 L 7.673 10.554 C 7.734 10.537 7.789 10.505 7.834 10.46 L 14.369 3.925 C 14.678 3.616 14.851 3.196 14.851 2.76 C 14.851 2.323 14.678 1.903 14.369 1.594 Z M 5.873 7.939 L 11.222 2.591 L 12.95 4.316 L 7.598 9.664 Z M 5.528 8.63 L 6.907 10.009 L 5.001 10.537 Z M 13.85 3.41 L 13.461 3.799 L 11.739 2.071 L 12.128 1.682 C 12.242 1.568 12.383 1.486 12.538 1.445 C 12.694 1.403 12.857 1.403 13.013 1.445 C 13.168 1.486 13.309 1.568 13.423 1.682 L 13.853 2.112 C 14.024 2.284 14.12 2.517 14.12 2.759 C 14.12 3.001 14.024 3.234 13.853 3.406 Z M 13.85 3.41"
            fill="#008885"
            stroke="#008885"
            stroke-width="0.5"/>
    </g>
</svg>
