<svg xmlns="http://www.w3.org/2000/svg" width="40" height="40" viewBox="0 0 40 40">
  <g id="Group_38852" data-name="Group 38852" transform="translate(-38 -172)">
    <g id="Group_38668" data-name="Group 38668" transform="translate(-65.472 -149.472)">
      <g id="Group_13368" data-name="Group 13368" transform="translate(103 321)">
        <g id="Ellipse_426" data-name="Ellipse 426" transform="translate(0.472 0.472)" fill="#f5f4ff" stroke="#fff" stroke-width="2">
          <circle cx="20" cy="20" r="20" stroke="none"/>
          <circle cx="20" cy="20" r="19" fill="none"/>
        </g>
      </g>
      <g id="thumbs" transform="translate(115.472 333.472)">
        <g id="Group_38651" data-name="Group 38651" transform="translate(0 4.958)">
          <g id="Group_38650" data-name="Group 38650">
            <path id="Path_30732" data-name="Path 30732" d="M3.187,19.042H1.062A1.064,1.064,0,0,1,0,17.979V8.063A1.064,1.064,0,0,1,1.062,7H3.187A1.064,1.064,0,0,1,4.25,8.063v9.917A1.064,1.064,0,0,1,3.187,19.042ZM1.062,7.708a.354.354,0,0,0-.354.354v9.917a.354.354,0,0,0,.354.354H3.187a.354.354,0,0,0,.354-.354V8.063a.354.354,0,0,0-.354-.354Z" transform="translate(0 -7)" fill="#282828" stroke="#282828" stroke-width="1.1"/>
          </g>
        </g>
        <g id="Group_38653" data-name="Group 38653" transform="translate(3.541 0)">
          <g id="Group_38652" data-name="Group 38652">
            <path id="Path_30733" data-name="Path 30733" d="M14.444,17h-1.3c-5.364,0-7.893-1.762-8-1.837a.354.354,0,0,1,.411-.577c.025.018,2.473,1.706,7.587,1.706h1.3a2.471,2.471,0,0,0,2.445-2.071l.827-4.958A2.48,2.48,0,0,0,15.27,6.375H11.021a.355.355,0,0,1-.3-.55,5.182,5.182,0,0,0,.65-2.638c0-1.961-.926-2.479-1.417-2.479-.348,0-.708,0-.708,1.771,0,2.668-3.585,4.49-3.737,4.567A.354.354,0,0,1,5.2,6.413c.033-.017,3.346-1.7,3.346-3.933C8.542.948,8.778,0,9.958,0c.735,0,2.125.666,2.125,3.187A6.334,6.334,0,0,1,11.6,5.667H15.27a3.187,3.187,0,0,1,3.144,3.711l-.827,4.958A3.177,3.177,0,0,1,14.444,17Z" transform="translate(-5 0)" fill="#282828" stroke="#282828" stroke-width="1.1"/>
          </g>
        </g>
      </g>
    </g>
    <g id="Group_38849" data-name="Group 38849" transform="translate(41.022 -147.978)">
      <g id="Rectangle_1387" data-name="Rectangle 1387" transform="translate(23.978 346.978)" fill="#008885" stroke="#008885" stroke-width="1">
        <rect width="12" height="12" rx="6" stroke="none"/>
        <rect x="0.5" y="0.5" width="11" height="11" rx="5.5" fill="none"/>
      </g>
      <g id="check" transform="translate(27.433 351.082)">
        <g id="Group_12269" data-name="Group 12269" transform="translate(0)">
          <path id="Path_22109" data-name="Path 22109" d="M5.347,71.915a.434.434,0,0,0-.614,0L1.969,74.679.741,73.451a.434.434,0,0,0-.614.614L1.662,75.6a.434.434,0,0,0,.614,0l3.07-3.071A.434.434,0,0,0,5.347,71.915Z" transform="translate(0.001 -71.788)" fill="#fff"/>
        </g>
      </g>
    </g>
  </g>
</svg>
