<svg id="Group_11876" data-name="Group 11876" xmlns="http://www.w3.org/2000/svg" width="13" height="9.141" viewBox="0 0 13 9.141">
  <path id="Path_25724" data-name="Path 25724" d="M11.857,76H1.143A1.144,1.144,0,0,0,0,77.143V84a1.144,1.144,0,0,0,1.143,1.143H11.857A1.144,1.144,0,0,0,13,84V77.143A1.144,1.144,0,0,0,11.857,76Zm-.16.762L7.308,81.128a1.143,1.143,0,0,1-1.617,0L1.3,76.762ZM.762,83.843V77.3l3.292,3.274Zm.541.536,3.29-3.269.56.557a1.9,1.9,0,0,0,2.692,0l.561-.558,3.29,3.269Zm10.935-.536L8.947,80.572,12.238,77.3Z" transform="translate(0 -76)" fill="#008885"/>
</svg>
