<svg xmlns="http://www.w3.org/2000/svg" width="40" height="40" viewBox="0 0 40 40">
  <g id="Group_38851" data-name="Group 38851" transform="translate(-38 -172)">
    <g id="Group_38668" data-name="Group 38668" transform="translate(-65.472 -149.472)">
      <g id="Group_13368" data-name="Group 13368" transform="translate(103 321)">
        <g id="Ellipse_426" data-name="Ellipse 426" transform="translate(0.472 0.472)" fill="#f5f4ff" stroke="#fff" stroke-width="2">
          <circle cx="20" cy="20" r="20" stroke="none"/>
          <circle cx="20" cy="20" r="19" fill="none"/>
        </g>
      </g>
      <g id="gallery" transform="translate(115.472 307.896)">
        <g id="Group_38649" data-name="Group 38649" transform="translate(0 26.576)">
          <g id="Group_38648" data-name="Group 38648" transform="translate(0 0)">
            <path id="Path_30730" data-name="Path 30730" d="M175.723,159.668a1.734,1.734,0,1,0,1.734,1.734A1.734,1.734,0,0,0,175.723,159.668Zm0,2.642a.908.908,0,0,1,0-1.817h0a.908.908,0,1,1,0,1.817Z" transform="translate(-167.114 -154.409)" fill="#282828" stroke="#282828" stroke-width="0.5"/>
            <path id="Path_30731" data-name="Path 30731" d="M15.525,27.871,4.253,26.591a1.548,1.548,0,0,0-1.218.351,1.569,1.569,0,0,0-.6,1.073L2.23,29.708H1.59A1.659,1.659,0,0,0,0,31.422v8.443a1.569,1.569,0,0,0,1.527,1.61h11.4a1.7,1.7,0,0,0,1.734-1.61v-.33a2.064,2.064,0,0,0,.784-.33,1.714,1.714,0,0,0,.6-1.115l.95-8.381A1.672,1.672,0,0,0,15.525,27.871ZM13.832,39.865a.869.869,0,0,1-.908.784H1.59a.743.743,0,0,1-.765-.721q0-.032,0-.063V38.337l3.2-2.353a.991.991,0,0,1,1.28.062l2.25,1.982a1.941,1.941,0,0,0,1.218.454,1.879,1.879,0,0,0,.991-.268l4.067-2.353v4Zm0-4.975-4.5,2.622a1.053,1.053,0,0,1-1.218-.1l-2.271-2a1.837,1.837,0,0,0-2.291-.083L.826,37.305V31.422a.833.833,0,0,1,.764-.888H12.924a.95.95,0,0,1,.908.888V34.89ZM16.165,29.6v.008l-.97,8.381a.7.7,0,0,1-.268.557c-.083.083-.268.124-.268.165V31.422a1.775,1.775,0,0,0-1.734-1.713H3.056l.186-1.61a.95.95,0,0,1,.31-.537.95.95,0,0,1,.619-.165l11.251,1.3A.826.826,0,0,1,16.165,29.6Z" transform="translate(0 -26.576)" fill="#282828" stroke="#282828" stroke-width="0.5"/>
          </g>
        </g>
      </g>
    </g>
    <g id="Group_38848" data-name="Group 38848" transform="translate(41.022 -147.978)">
      <g id="Rectangle_1387" data-name="Rectangle 1387" transform="translate(23.978 346.978)" fill="#008885" stroke="#008885" stroke-width="1">
        <rect width="12" height="12" rx="6" stroke="none"/>
        <rect x="0.5" y="0.5" width="11" height="11" rx="5.5" fill="none"/>
      </g>
      <g id="check" transform="translate(27.433 351.082)">
        <g id="Group_12269" data-name="Group 12269" transform="translate(0)">
          <path id="Path_22109" data-name="Path 22109" d="M5.347,71.915a.434.434,0,0,0-.614,0L1.969,74.679.741,73.451a.434.434,0,0,0-.614.614L1.662,75.6a.434.434,0,0,0,.614,0l3.07-3.071A.434.434,0,0,0,5.347,71.915Z" transform="translate(0.001 -71.788)" fill="#fff"/>
        </g>
      </g>
    </g>
  </g>
</svg>
