<svg xmlns="http://www.w3.org/2000/svg" width="37" height="37" viewBox="0 0 26 26">
  <g id="Group_12209" data-name="Group 12209" transform="translate(0.262 0.262)">
    <circle id="Ellipse_342" data-name="Ellipse 342" cx="13" cy="13" r="13" transform="translate(-0.262 -0.262)" fill="#fff"/>
    <path id="heart" d="M7.028,46.75a.411.411,0,0,1-.206-.055,24.59,24.59,0,0,1-3.38-2.432A13.943,13.943,0,0,1,1.1,41.751,5.3,5.3,0,0,1,0,38.736a4.352,4.352,0,0,1,1.11-2.914,3.638,3.638,0,0,1,2.709-1.228,3.759,3.759,0,0,1,3.209,1.9,3.759,3.759,0,0,1,3.209-1.9,3.659,3.659,0,0,1,2.6,1.108,4.29,4.29,0,0,1,1.215,3.04,5.4,5.4,0,0,1-1.118,3.01A14.123,14.123,0,0,1,10.6,44.263a24.674,24.674,0,0,1-3.362,2.432.412.412,0,0,1-.207.056Z" transform="translate(5.71 -27.203)" fill="#ff5a5f"/>
  </g>
</svg>
