<svg
    xmlns="http://www.w3.org/2000/svg"
    viewBox="0 0 50 50"
    id="vector">
    <path
        id="path_4"
        d="M 25 25 M 0 25 C 0 18.372 2.636 12.009 7.322 7.322 C 12.009 2.636 18.372 0 25 0 C 31.628 0 37.991 2.636 42.678 7.322 C 47.364 12.009 50 18.372 50 25 C 50 31.628 47.364 37.991 42.678 42.678 C 37.991 47.364 31.628 50 25 50 C 18.372 50 12.009 47.364 7.322 42.678 C 2.636 37.991 0 31.628 0 25"
        fill="#ffffff"
        stroke="#ffffff"
        stroke-width="1"/>
    <path
        id="path_5"
        d="M 25 25 M 0.5 25 C 0.5 19.827 2.138 14.784 5.179 10.599 C 8.22 6.414 12.509 3.298 17.429 1.699 C 22.349 0.101 27.651 0.101 32.571 1.699 C 37.491 3.298 41.78 6.414 44.821 10.599 C 47.862 14.784 49.5 19.827 49.5 25 C 49.5 30.173 47.862 35.216 44.821 39.401 C 41.78 43.586 37.491 46.702 32.571 48.301 C 27.651 49.899 22.349 49.899 17.429 48.301 C 12.509 46.702 8.22 43.586 5.179 39.401 C 2.138 35.216 0.5 30.173 0.5 25"
        fill="#ffffff"
        stroke="#dddddd"
        stroke-width="1"/>
    <path
        id="path_6"
        d="M 33.282 19.489 L 28.804 15.006 C 28.633 14.842 28.407 14.75 28.17 14.746 L 18.311 14.746 C 17.599 14.749 16.916 15.033 16.413 15.537 C 15.909 16.04 15.625 16.723 15.622 17.435 L 15.622 33.566 C 15.625 34.278 15.909 34.961 16.413 35.464 C 16.916 35.968 17.599 36.252 18.311 36.255 L 21 36.255 C 21.237 36.255 21.465 36.161 21.633 35.993 C 21.801 35.825 21.895 35.597 21.895 35.36 C 21.895 35.123 21.801 34.895 21.633 34.727 C 21.465 34.559 21.237 34.465 21 34.465 L 18.311 34.465 C 18.074 34.464 17.847 34.369 17.68 34.201 C 17.512 34.034 17.417 33.807 17.416 33.57 L 17.416 17.435 C 17.417 17.198 17.512 16.971 17.68 16.804 C 17.847 16.636 18.074 16.541 18.311 16.54 L 26.377 16.54 L 26.377 21.022 C 26.378 21.259 26.473 21.486 26.641 21.653 C 26.808 21.821 27.035 21.916 27.272 21.917 L 31.754 21.917 L 31.754 26.399 C 31.754 26.636 31.848 26.864 32.016 27.032 C 32.184 27.2 32.412 27.294 32.649 27.294 C 32.886 27.294 33.114 27.2 33.282 27.032 C 33.45 26.864 33.544 26.636 33.544 26.399 L 33.544 20.123 C 33.544 19.885 33.45 19.657 33.282 19.489 Z M 28.165 20.123 L 28.165 16.905 L 31.383 20.123 Z"
        fill="#008885"/>
    <path
        id="path_7"
        d="M 26.211 36.254 C 25.393 36.254 24.607 35.929 24.028 35.35 C 23.449 34.771 23.124 33.985 23.124 33.167 C 23.124 32.349 23.449 31.563 24.028 30.984 C 24.607 30.405 25.393 30.08 26.211 30.08 C 26.415 30.08 26.612 30.161 26.756 30.306 C 26.901 30.45 26.982 30.647 26.982 30.851 C 26.982 31.055 26.901 31.252 26.756 31.396 C 26.612 31.541 26.415 31.622 26.211 31.622 C 25.802 31.623 25.41 31.787 25.121 32.076 C 24.833 32.366 24.67 32.759 24.67 33.167 C 24.67 33.576 24.833 33.969 25.121 34.259 C 25.41 34.548 25.802 34.712 26.211 34.713 C 26.415 34.713 26.612 34.794 26.756 34.939 C 26.901 35.083 26.982 35.28 26.982 35.484 C 26.982 35.688 26.901 35.885 26.756 36.029 C 26.612 36.174 26.415 36.255 26.211 36.255 Z"
        fill="#008885"/>
    <path
        id="path_8"
        d="M 30.456 36.254 C 30.252 36.254 30.055 36.173 29.911 36.028 C 29.766 35.884 29.685 35.687 29.685 35.483 C 29.685 35.279 29.766 35.082 29.911 34.938 C 30.055 34.793 30.252 34.712 30.456 34.712 C 30.783 34.713 31.102 34.61 31.367 34.419 C 31.632 34.227 31.829 33.956 31.93 33.645 C 32.032 33.334 32.032 32.999 31.93 32.688 C 31.829 32.377 31.632 32.106 31.367 31.914 C 31.102 31.723 30.783 31.62 30.456 31.621 C 30.252 31.621 30.055 31.54 29.911 31.395 C 29.766 31.251 29.685 31.054 29.685 30.85 C 29.685 30.646 29.766 30.449 29.911 30.305 C 30.055 30.16 30.252 30.079 30.456 30.079 C 31.274 30.079 32.06 30.404 32.639 30.983 C 33.218 31.562 33.543 32.348 33.543 33.166 C 33.543 33.984 33.218 34.77 32.639 35.349 C 32.06 35.928 31.274 36.253 30.456 36.253 Z"
        fill="#008885"/>
    <path
        id="path_9"
        d="M 29.924 33.938 L 26.837 33.938 C 26.633 33.938 26.436 33.857 26.292 33.712 C 26.147 33.568 26.066 33.371 26.066 33.167 C 26.066 32.963 26.147 32.766 26.292 32.622 C 26.436 32.477 26.633 32.396 26.837 32.396 L 29.924 32.396 C 30.128 32.396 30.325 32.477 30.469 32.622 C 30.614 32.766 30.695 32.963 30.695 33.167 C 30.695 33.371 30.614 33.568 30.469 33.712 C 30.325 33.857 30.128 33.938 29.924 33.938 Z"
        fill="#008885"/>
</svg>
