<svg xmlns="http://www.w3.org/2000/svg" xmlns:xlink="http://www.w3.org/1999/xlink" width="103" height="59" viewBox="0 0 103 59">
  <defs>
    <filter id="Rectangle_1363" x="0" y="0" width="103" height="59" filterUnits="userSpaceOnUse">
      <feOffset dy="4" input="SourceAlpha"/>
      <feGaussianBlur stdDeviation="4.5" result="blur"/>
      <feFlood flood-opacity="0.09"/>
      <feComposite operator="in" in2="blur"/>
      <feComposite in="SourceGraphic"/>
    </filter>
  </defs>
  <g id="Group_12447" data-name="Group 12447" transform="translate(-9.25 9.866)">
    <g id="Group_12324" data-name="Group 12324">
      <g transform="matrix(1, 0, 0, 1, 9.25, -9.87)" filter="url(#Rectangle_1363)">
        <g id="Rectangle_1363-2" data-name="Rectangle 1363" transform="translate(13.5 9.5)" fill="#008885" stroke="#008885" stroke-width="0.8">
          <rect width="76" height="32" rx="16" stroke="none"/>
          <rect x="0.4" y="0.4" width="75.2" height="31.2" rx="15.6" fill="none"/>
        </g>
      </g>
      <g id="Polygon_1" data-name="Polygon 1" transform="translate(67.75 38.634) rotate(180)" fill="#008885">
        <path d="M 12.07866191864014 9.5 L 0.9213384985923767 9.5 L 6.5 0.9174438714981079 L 12.07866191864014 9.5 Z" stroke="none"/>
        <path d="M 6.5 1.834897994995117 L 1.842683792114258 9 L 11.15731620788574 9 L 6.5 1.834897994995117 M 6.5 0 L 13 10 L 0 10 L 6.5 0 Z" stroke="none" fill="#008885"/>
      </g>
    </g>
    <path id="Path_22491" data-name="Path 22491" d="M5217.8,142.528l2.647,3.819h12.209l3.012-4.1Z" transform="translate(-5165.981 -115.51)" fill="#008885"/>
  </g>
</svg>
