<svg xmlns="http://www.w3.org/2000/svg" width="17.067" height="18.286" viewBox="0 0 17.067 18.286">
  <g id="Layer_2" data-name="Layer 2" transform="translate(-2 -1)">
    <path id="Path_22509" data-name="Path 22509" d="M2.61,6.219H3.829V18.7a2.152,2.152,0,0,0,2.146,2.146h9.143A2.152,2.152,0,0,0,17.239,18.7V6.219h1.219a.61.61,0,0,0,0-1.219H2.61a.61.61,0,1,0,0,1.219Zm13.41,0V18.7a.927.927,0,0,1-.927.927H5.95a.927.927,0,0,1-.9-.927V6.219Z" transform="translate(0 -1.562)" fill="#008885"/>
    <path id="Path_22510" data-name="Path 22510" d="M11.61,2.219h4.876a.61.61,0,1,0,0-1.219H11.61a.61.61,0,1,0,0,1.219Z" transform="translate(-3.514)" fill="#008885"/>
    <path id="Path_22511" data-name="Path 22511" d="M12.29,19.534a.61.61,0,0,0,.61-.61V11.61a.61.61,0,0,0-1.219,0v7.315A.61.61,0,0,0,12.29,19.534Z" transform="translate(-3.78 -3.905)" fill="#008885"/>
    <path id="Path_22512" data-name="Path 22512" d="M18.93,19.534a.61.61,0,0,0,.61-.61V11.61a.61.61,0,0,0-1.219,0v7.315A.61.61,0,0,0,18.93,19.534Z" transform="translate(-6.372 -3.905)" fill="#008885"/>
  </g>
</svg>
