<svg xmlns="http://www.w3.org/2000/svg" width="12.999" height="13" viewBox="0 0 12.999 13">
  <g id="Path_22528" data-name="Path 22528" transform="translate(-97.499 -97.494)" fill="none" fill-rule="evenodd">
    <path d="M109.462,107.275l-.01.024c-.09.23-.18.459-.275.687-.081.2-.166.393-.259.583a1.62,1.62,0,0,1-.233.383,1.8,1.8,0,0,1-.3.242,2.606,2.606,0,0,1-2.089.159c-2.944-.789-6.868-4.713-7.657-7.656a2.606,2.606,0,0,1,.16-2.089,1.776,1.776,0,0,1,.241-.3,1.62,1.62,0,0,1,.383-.233c.191-.093.388-.177.584-.259.228-.094.457-.185.687-.275l.024-.009a.538.538,0,0,1,.665.232l1.138,1.972a.542.542,0,0,1-.2.738,1.623,1.623,0,0,0-.819,1.058,1.558,1.558,0,0,0,.287,1.277,13.715,13.715,0,0,0,2.391,2.391,1.557,1.557,0,0,0,1.278.287,1.622,1.622,0,0,0,1.058-.819.542.542,0,0,1,.738-.2l1.972,1.138A.538.538,0,0,1,109.462,107.275Z" stroke="none"/>
    <path d="M 107.2666778564453 109.4938049316406 C 107.6588897705078 109.4938049316406 108.0453567504883 109.4115371704102 108.3854064941406 109.1938934326172 C 108.4937438964844 109.1242218017578 108.5942764282227 109.0431137084961 108.6852798461914 108.9519500732422 C 108.7747039794922 108.8625640869141 108.8628005981445 108.6827545166016 108.9184265136719 108.5689239501953 C 109.011474609375 108.378288269043 109.095703125 108.1816482543945 109.177116394043 107.9857482910156 C 109.2718811035156 107.7578048706055 109.3622970581055 107.5283279418945 109.4522857666016 107.2986297607422 L 109.4618072509766 107.2746124267578 C 109.5600128173828 107.0260314941406 109.4609222412109 106.743034362793 109.2290649414062 106.6100082397461 L 107.2574768066406 105.4716186523438 C 106.9991073608398 105.3234252929688 106.6695861816406 105.411750793457 106.519889831543 105.6692581176758 C 106.2874908447266 106.0718688964844 105.9252319335938 106.3932647705078 105.4616241455078 106.4880447387695 C 105.0142822265625 106.5847320556641 104.5470428466797 106.4797515869141 104.1840972900391 106.2009429931641 C 103.7352066040039 105.8570938110352 103.3108901977539 105.4822387695312 102.9142761230469 105.0791549682617 C 102.5112609863281 104.6826324462891 102.136474609375 104.2584228515625 101.7926864624023 103.8096084594727 C 101.5139770507812 103.4466400146484 101.4090118408203 102.9795074462891 101.505615234375 102.5322113037109 C 101.6004943847656 102.0682144165039 101.9216766357422 101.7063446044922 102.3242645263672 101.4737396240234 C 102.5817718505859 101.3239593505859 102.6700439453125 100.9944000244141 102.5219268798828 100.7359313964844 L 101.3838043212891 98.76414489746094 C 101.250602722168 98.53227233886719 100.967399597168 98.43328857421875 100.71875 98.53175354003906 L 100.6948547363281 98.54097747802734 C 100.4653167724609 98.63107299804688 100.235710144043 98.72187805175781 100.0078430175781 98.81615447998047 C 99.81196594238281 98.89756774902344 99.61519622802734 98.98175811767578 99.42433166503906 99.07484436035156 C 99.31060028076172 99.13046264648438 99.13058471679688 99.21854400634766 99.04132080078125 99.30793762207031 C 98.95022583007812 99.39874267578125 98.8692626953125 99.49913787841797 98.79985046386719 99.60744476318359 C 98.40031433105469 100.2311248779297 98.45646667480469 101.0109481811523 98.64015197753906 101.6965484619141 C 99.42889404296875 104.6404724121094 103.3527526855469 108.5643539428711 106.2967224121094 109.3530044555664 C 106.6084136962891 109.4365997314453 106.9395370483398 109.4938049316406 107.2666778564453 109.4938049316406 M 107.2666854858398 110.4938049316406 C 106.8839569091797 110.4938049316406 106.4704513549805 110.434944152832 106.0376663208008 110.3188629150391 C 104.4702606201172 109.8989791870117 102.6169128417969 108.7038879394531 100.953125 107.0401077270508 C 99.28935241699219 105.376350402832 98.09423065185547 103.5230331420898 97.67422485351562 101.9553375244141 C 97.36777496337891 100.8115692138672 97.46319580078125 99.84013366699219 97.95781707763672 99.06802368164062 C 98.06620025634766 98.89890289306641 98.19320678710938 98.74137878417969 98.33538055419922 98.59967041015625 C 98.52511596679688 98.40962982177734 98.76041412353516 98.28635406494141 98.98500061035156 98.176513671875 C 99.20723724365234 98.06813049316406 99.43267059326172 97.97228240966797 99.62401580810547 97.89273834228516 C 99.84892272949219 97.79969787597656 100.0685119628906 97.71253967285156 100.3295059204102 97.610107421875 L 100.3553314208984 97.60012054443359 C 100.5351104736328 97.52960968017578 100.7239685058594 97.49385833740234 100.9167709350586 97.49385833740234 C 101.466064453125 97.49385833740234 101.9772644042969 97.78971862792969 102.2508926391602 98.26598358154297 L 103.3880004882812 100.2360305786133 C 103.8095626831055 100.9716415405273 103.5572204589844 101.9134521484375 102.8270416259766 102.3381500244141 C 102.7149124145508 102.4029541015625 102.5250854492188 102.5382080078125 102.4853439331055 102.732551574707 L 102.4830856323242 102.7433090209961 C 102.4484329223633 102.9037399291992 102.4858856201172 103.0704193115234 102.5858306884766 103.2005844116211 C 102.9008331298828 103.6118087768555 103.2470626831055 104.0037078857422 103.6156158447266 104.3663330078125 L 103.6270751953125 104.3777923583984 C 103.9897537231445 104.7463836669922 104.3817520141602 105.0926818847656 104.7921905517578 105.4070816040039 C 104.9216918945312 105.5065612792969 105.0922088623047 105.5448150634766 105.2502822875977 105.510627746582 L 105.2613220214844 105.50830078125 C 105.4555053710938 105.4686126708984 105.5905838012695 105.2788925170898 105.6538238525391 105.1693420410156 C 105.9303436279297 104.6936340332031 106.4412155151367 104.3997650146484 106.9885864257812 104.3997650146484 C 107.2568435668945 104.3997650146484 107.5218734741211 104.4704513549805 107.7550354003906 104.6041946411133 L 109.7290954589844 105.7440032958984 C 110.3845901489258 106.1200637817383 110.670539855957 106.936637878418 110.391845703125 107.6420593261719 L 110.3819351196289 107.6670837402344 C 110.2946701049805 107.8898315429688 110.1997528076172 108.1308822631836 110.1004943847656 108.3696441650391 C 110.0212860107422 108.5602416992188 109.9256134033203 108.7852096557617 109.8170852661133 109.007568359375 C 109.7073135375977 109.2322311401367 109.5842437744141 109.4672622680664 109.3922729492188 109.6591796875 C 109.251594543457 109.8000946044922 109.0945739746094 109.9267730712891 108.9262847900391 110.0349884033203 C 108.4500198364258 110.3398208618164 107.8922653198242 110.4938049316406 107.2666854858398 110.4938049316406 Z" stroke="none" fill="#008885"/>
  </g>
</svg>
