<svg xmlns="http://www.w3.org/2000/svg" width="40" height="40" viewBox="0 0 40 40">
  <g id="Group_38850" data-name="Group 38850" transform="translate(-38 -172)">
    <g id="Group_38668" data-name="Group 38668" transform="translate(-65.472 -149.472)">
      <g id="Group_13368" data-name="Group 13368" transform="translate(103 321)">
        <g id="Ellipse_426" data-name="Ellipse 426" transform="translate(0.472 0.472)" fill="#f5f4ff" stroke="#fff" stroke-width="2">
          <circle cx="20" cy="20" r="20" stroke="none"/>
          <circle cx="20" cy="20" r="19" fill="none"/>
        </g>
      </g>
      <g id="pen" transform="translate(115.231 333.016)">
        <path id="Path_30734" data-name="Path 30734" d="M22.195,5.211a.436.436,0,0,0-.3-.264A18.249,18.249,0,0,0,17.89,4.5a7.375,7.375,0,0,0-3.468.954v-.52a.427.427,0,0,0-.23-.381.445.445,0,0,0-.447.022l-1.3.867a9.792,9.792,0,0,0-2.233,2.41L10.061,7.4a.435.435,0,0,0-.607-.251c-.169.087-1.084.685-2.38,4.136a13.281,13.281,0,0,0-.447,7.192.365.365,0,0,0,.026.061c.087-.178.579.3.648.221a17.812,17.812,0,0,1,4.018-6.5A30.9,30.9,0,0,1,17.7,6.711c.118-.057-8.747,5.524-10.053,11.9a.483.483,0,0,1-.108.152,12.952,12.952,0,0,0,3.616-1.3A12.128,12.128,0,0,0,15.2,14.3a.439.439,0,0,0,.082-.334.432.432,0,0,0-.186-.286l-.564-.377,1.76-.585a11.005,11.005,0,0,0,3.2-2.272.443.443,0,0,0,.113-.421.426.426,0,0,0-.312-.3l-.785-.2L19,9.2a16.619,16.619,0,0,0,3.156-3.59.434.434,0,0,0,.043-.4Z" transform="translate(-5.749 -4.5)" fill="none" stroke="#282828" stroke-width="1.3"/>
        <path id="Path_30735" data-name="Path 30735" d="M20.6,34.519a11.633,11.633,0,0,0-3.169,1.361,3.47,3.47,0,0,1-3.9.408c-1.959-.98-4.27.837-4.365.915a.438.438,0,0,0-.069.611.433.433,0,0,0,.338.165.417.417,0,0,0,.269-.1c.022-.017,1.968-1.552,3.438-.819a4.341,4.341,0,0,0,4.769-.46,10.806,10.806,0,0,1,2.9-1.24.433.433,0,1,0-.208-.841Z" transform="translate(-7.266 -21.501)" fill="#282828" stroke="#282828" stroke-width="0.2"/>
        <path id="Path_30736" data-name="Path 30736" d="M5.794,37.43c-.147.347-.334.845-.594,1.565-.082.225-.143.4-.173.468a.437.437,0,0,0,.234.568.468.468,0,0,0,.165.035.43.43,0,0,0,.4-.269c.03-.078.1-.264.186-.507.13-.364.438-1.21.629-1.639a2.591,2.591,0,0,1-.351.03.652.652,0,0,1-.5-.247Z" transform="translate(-4.994 -23.154)" fill="#282828"/>
      </g>
    </g>
    <g id="Group_12492" data-name="Group 12492" transform="translate(41.022 -147.978)">
      <g id="Rectangle_1387" data-name="Rectangle 1387" transform="translate(23.978 346.978)" fill="#008885" stroke="#008885" stroke-width="1">
        <rect width="12" height="12" rx="6" stroke="none"/>
        <rect x="0.5" y="0.5" width="11" height="11" rx="5.5" fill="none"/>
      </g>
      <g id="check" transform="translate(27.433 351.082)">
        <g id="Group_12269" data-name="Group 12269" transform="translate(0)">
          <path id="Path_22109" data-name="Path 22109" d="M5.347,71.915a.434.434,0,0,0-.614,0L1.969,74.679.741,73.451a.434.434,0,0,0-.614.614L1.662,75.6a.434.434,0,0,0,.614,0l3.07-3.071A.434.434,0,0,0,5.347,71.915Z" transform="translate(0.001 -71.788)" fill="#fff"/>
        </g>
      </g>
    </g>
  </g>
</svg>
